HIERARCHY
ROOT Hips
{
 OFFSET 0.000000 0.000000 0.000000
 CHANNELS 6 Xposition Yposition Zposition Yrotation Xrotation Zrotation
 JOINT Chest
 {
  OFFSET 0.000000 9.724570 -1.080508
  CHANNELS 3 Yrotation Xrotation Zrotation
  JOINT Chest2
  {
   OFFSET 0.000000 10.781023 0.000000
   CHANNELS 3 Yrotation Xrotation Zrotation
   JOINT Chest3
   {
    OFFSET 0.000000 9.842877 -0.000488
    CHANNELS 3 Yrotation Xrotation Zrotation
    JOINT Chest4
    {
     OFFSET 0.000000 9.831886 -0.000488
     CHANNELS 3 Yrotation Xrotation Zrotation
     JOINT Neck
     {
      OFFSET 0.000000 13.778020 0.000000
      CHANNELS 3 Yrotation Xrotation Zrotation
      JOINT Head
      {
       OFFSET 0.000000 9.153561 0.001049
       CHANNELS 3 Yrotation Xrotation Zrotation
       End Site
       {
        OFFSET 0.000000 17.013053 0.000141
       }
      }
     }
     JOINT RightCollar
     {
      OFFSET -2.998440 7.723576 0.000000
      CHANNELS 3 Yrotation Xrotation Zrotation
      JOINT RightShoulder
      {
       OFFSET -14.001811 0.000000 0.000000
       CHANNELS 3 Yrotation Xrotation Zrotation
       JOINT RightElbow
       {
        OFFSET -30.003712 0.000000 0.000000
        CHANNELS 3 Yrotation Xrotation Zrotation
        JOINT RightWrist
        {
         OFFSET -24.523460 0.000000 0.000000
         CHANNELS 3 Yrotation Xrotation Zrotation
         End Site
         {
          OFFSET -18.302352 0.000000 0.000000
         }
        }
       }
      }
     }
     JOINT LeftCollar
     {
      OFFSET 2.998440 7.723576 0.000000
      CHANNELS 3 Yrotation Xrotation Zrotation
      JOINT LeftShoulder
      {
       OFFSET 14.001811 0.000000 0.000000
       CHANNELS 3 Yrotation Xrotation Zrotation
       JOINT LeftElbow
       {
        OFFSET 30.003712 0.000000 0.000000
        CHANNELS 3 Yrotation Xrotation Zrotation
        JOINT LeftWrist
        {
         OFFSET 24.523460 0.000000 0.000000
         CHANNELS 3 Yrotation Xrotation Zrotation
         End Site
         {
          OFFSET 18.302352 0.000000 0.000000
         }
        }
       }
      }
     }
    }
   }
  }
 }
 JOINT RightHip
 {
  OFFSET -7.997399 0.002291 -0.000255
  CHANNELS 3 Yrotation Xrotation Zrotation
  JOINT RightKnee
  {
   OFFSET 0.000000 -41.619678 -0.000115
   CHANNELS 3 Yrotation Xrotation Zrotation
   JOINT RightAnkle
   {
    OFFSET 0.000000 -40.601393 -0.000194
    CHANNELS 3 Yrotation Xrotation Zrotation
    JOINT RightToe
    {
     OFFSET 0.000000 -6.581369 14.895014
     CHANNELS 3 Yrotation Xrotation Zrotation
     End Site
     {
      OFFSET 0.000000 -1.508064 6.450961
     }
    }
   }
  }
 }
 JOINT LeftHip
 {
  OFFSET 7.997399 0.000098 -0.000011
  CHANNELS 3 Yrotation Xrotation Zrotation
  JOINT LeftKnee
  {
   OFFSET 0.000000 -41.619678 -0.000115
   CHANNELS 3 Yrotation Xrotation Zrotation
   JOINT LeftAnkle
   {
    OFFSET 0.000000 -40.601393 -0.000194
    CHANNELS 3 Yrotation Xrotation Zrotation
    JOINT LeftToe
    {
     OFFSET 0.000000 -6.581369 14.895014
     CHANNELS 3 Yrotation Xrotation Zrotation
     End Site
     {
      OFFSET 0.000000 -1.508064 6.450961
     }
    }
   }
  }
 }
}
MOTION
Frames: 11
Frame Time: 0.016667
203.276096 81.922783 195.504947 17.691378 1.322409 1.009932 -1.655161 2.433387 0.261021 -0.749526 -4.745756 0.125071 -0.747084 1.074175 0.048972 -0.556486 6.642251 0.038244 -2.306355 7.536124 0.937998 -5.056610 -21.947857 3.037719 -8.123318 -9.550509 -1.717406 13.841155 -20.824597 -16.663515 -8.970328 -13.785374 -11.891955 11.777223 17.603401 12.203791 -3.854855 -4.165547 3.447256 -88.478741 -28.495401 28.117412 -1.089205 -26.990703 -9.989178 -2.033878 -2.539173 8.257677 -12.818935 -20.698227 -14.758709 6.535485 44.925779 -1.261246 5.322577 -24.259709 16.003433 0.069424 -3.933179 -1.956033 19.755909 -12.471324 8.145858 -9.102048 43.398584 0.824831 13.958331 -26.567490 -19.770308 -0.018461 -3.438611 0.575839
203.409439 83.133907 195.459378 17.742066 1.389608 1.012519 -1.847873 2.306798 0.324705 -0.838354 -4.802375 0.153985 -0.835551 1.017436 0.068870 -0.621343 6.599666 0.053335 -2.247570 7.808862 0.920758 -4.914860 -21.445759 2.956510 -7.698742 -8.683075 -1.431777 12.433426 -22.191939 -14.143829 -7.993435 -14.384648 -10.872439 13.052737 17.688937 10.625621 -4.048957 -3.975594 3.199053 -86.466678 -29.049270 24.631730 -1.420513 -27.497967 -10.479838 -3.766970 -3.702923 10.135205 -10.886586 -18.740593 -15.412171 5.916128 41.533777 -0.115541 3.995012 -21.073368 16.046092 0.084631 -5.054044 -1.917429 18.968484 -11.284162 8.559243 -8.577003 40.462749 -0.165667 13.517321 -23.502246 -18.099319 -0.004589 -4.779475 0.109951
203.661411 84.793670 195.395857 17.887757 1.628606 1.050810 -2.098902 1.936830 0.442866 -0.955512 -4.967494 0.206316 -0.952068 0.852147 0.109317 -0.705704 6.475634 0.083784 -2.203887 8.425346 0.829053 -4.747754 -20.308677 2.716665 -7.467374 -8.634262 -1.138761 11.309097 -23.095517 -11.108480 -6.852245 -15.337819 -9.877811 13.720449 19.548883 12.240255 -4.350897 -3.923530 2.831705 -83.992175 -30.605245 20.021334 -1.565384 -27.583801 -11.300750 -4.129401 -4.035514 10.518190 -10.178408 -16.636037 -15.707003 5.107967 36.650630 0.210016 3.699437 -15.655267 15.826810 0.123361 -8.130449 -1.659430 19.492997 -9.686515 8.748124 -8.246523 35.836806 -0.867286 11.954127 -19.257000 -15.233344 0.046862 -6.640704 -0.908772
203.951982 86.858196 195.317044 18.139885 1.973377 1.098393 -2.396367 1.418839 0.585347 -1.094030 -5.198702 0.268551 -1.089638 0.620690 0.157496 -0.805227 6.301925 0.119879 -2.182932 9.271564 0.717230 -4.607149 -18.744838 2.439193 -7.247523 -8.984882 -0.801951 10.011309 -23.708794 -7.510015 -5.634535 -16.359442 -8.780373 13.933814 22.384197 15.359272 -4.807801 -3.963144 2.388871 -80.781410 -32.451002 14.253166 -1.589418 -27.336903 -12.283122 -3.663956 -3.988868 10.061371 -9.918156 -14.280491 -15.830206 4.055119 30.648675 0.210920 3.836284 -8.583681 15.598309 0.143817 -12.080756 -1.307245 20.564154 -7.812806 8.881405 -7.803421 30.035454 -1.485611 10.008284 -13.668808 -11.914356 0.162433 -8.944362 -2.236347
204.138862 89.015976 195.216857 18.483513 2.268235 1.109213 -2.679706 1.019274 0.702668 -1.224915 -5.377304 0.319563 -1.219581 0.441805 0.195223 -0.899778 6.167630 0.148071 -2.187707 9.991797 0.662788 -4.554529 -17.410738 2.296576 -7.159744 -9.191269 -0.534689 8.266352 -24.157408 -3.246394 -4.616055 -16.750612 -7.761532 14.022890 24.751842 17.538690 -5.242824 -3.899815 1.966959 -77.484858 -33.308875 8.331948 -1.719784 -26.658648 -12.921042 -2.701106 -3.812503 8.985333 -9.716251 -12.159252 -15.780547 2.513673 24.978082 0.011549 4.290274 -1.155819 15.858111 0.152273 -14.261335 -1.283776 21.372581 -6.213236 8.927729 -6.569117 24.575289 -1.611790 8.519240 -6.683050 -9.867606 0.271357 -11.257070 -3.112707
204.142090 91.278261 195.078542 18.959804 2.483697 1.048957 -2.941808 0.821889 0.776148 -1.344507 -5.465884 0.351742 -1.338424 0.352945 0.215265 -0.987358 6.100891 0.163052 -2.215523 10.485410 0.720753 -4.610948 -16.490835 2.395745 -7.392800 -9.372814 -0.524563 5.926119 -24.157795 2.107789 -3.921896 -16.055819 -6.939465 14.279624 26.091920 17.771691 -5.691451 -3.844148 1.707383 -74.322256 -32.597786 2.424125 -2.061741 -25.355322 -12.919937 -1.092805 -3.492573 6.941524 -9.389523 -10.394452 -15.598067 -0.050525 19.679990 -0.426976 5.312319 7.507118 17.200354 0.118004 -13.254678 -2.125962 21.390793 -5.039584 8.864012 -3.877310 19.524347 -0.871758 7.619324 3.340807 -9.812162 0.324053 -14.366156 -3.208843
204.041626 93.633800 194.918854 19.527037 2.650426 0.952044 -3.189749 0.743245 0.822487 -1.456740 -5.501555 0.372353 -1.450059 0.317000 0.224485 -1.070374 6.073874 0.169970 -2.261205 10.853662 0.841455 -4.735298 -15.799467 2.629776 -7.753604 -9.413516 -0.588802 3.276818 -23.801136 8.069294 -3.498370 -14.765184 -6.307194 14.523096 26.960594 17.100325 -6.125652 -3.676700 1.473259 -71.579002 -30.913269 -3.254599 -2.417264 -23.671505 -12.518264 0.905119 -2.863774 4.251118 -9.101399 -8.870733 -15.243423 -2.988617 14.683785 -0.846321 6.830436 16.529133 19.069405 -0.141606 -10.533034 -3.374727 21.147415 -4.138391 8.682943 -0.600101 14.714822 0.105431 6.883735 14.740857 -10.411190 0.294968 -17.512015 -3.033172
203.935059 95.737331 194.781973 20.045791 2.702453 0.872518 -3.383982 0.798841 0.843460 -1.544226 -5.477329 0.382419 -1.537225 0.341000 0.225675 -1.135670 6.091842 0.170975 -2.318643 11.044105 0.949744 -4.884042 -15.437754 2.853219 -7.783737 -8.416455 -0.297234 0.731414 -23.937661 13.507372 -3.305748 -13.656727 -5.860432 14.583420 27.564949 16.298703 -6.288566 -2.851417 0.944701 -70.120469 -29.003765 -7.556399 -2.655768 -22.194800 -12.037903 2.399926 -2.126063 2.104858 -8.984138 -7.716031 -14.596837 -4.918229 11.287454 -0.969278 7.921406 21.976440 20.076285 -0.453122 -7.702133 -3.957321 21.423879 -3.600685 8.343902 1.802958 11.366585 0.575864 6.275061 22.494028 -10.492706 0.139113 -17.924441 -2.735549
203.839363 97.500093 194.675248 20.446482 2.594193 0.827699 -3.474364 1.066530 0.839854 -1.584913 -5.358495 0.382895 -1.578086 0.459720 0.222022 -1.166620 6.180876 0.168576 -2.403976 10.939787 1.019792 -5.084630 -15.623342 3.031568 -7.136755 -5.231124 0.663339 -1.639923 -25.647659 18.045869 -3.374818 -13.064526 -5.628139 14.525799 27.777747 15.469089 -5.936559 -0.480570 -0.150666 -70.813257 -27.144492 -9.235802 -2.809493 -21.117267 -11.570684 3.101285 -1.327146 0.965342 -9.094964 -7.102997 -13.519091 -5.084899 10.455355 -0.844433 7.771213 20.973803 19.021283 -0.430769 -4.900380 -3.074096 22.892444 -3.620418 7.797607 2.756384 10.359864 0.481072 5.590482 23.770543 -9.987921 -0.090274 -13.100553 -1.968531
203.737563 99.010847 194.591331 20.798951 2.370465 0.797252 -3.510757 1.468318 0.812672 -1.600741 -5.179797 0.373766 -1.594351 0.638370 0.211280 -1.179637 6.314887 0.160990 -2.502324 10.657669 1.077976 -5.316256 -16.138376 3.204599 -6.036108 -1.042606 2.052859 -3.841143 -28.075435 22.289808 -3.623200 -12.734084 -5.524823 14.388106 27.696503 14.569780 -5.391188 2.567695 -1.500572 -72.436731 -25.118323 -9.753731 -2.901935 -20.257339 -11.064705 3.408684 -0.584554 0.394779 -9.387202 -6.854129 -12.170941 -4.356313 11.258629 -0.636632 7.215052 16.414611 16.956591 -0.193406 -1.996107 -1.359444 24.890600 -3.979965 7.077833 3.007080 10.876778 0.275973 4.714235 21.388496 -9.511755 -0.139147 -5.549932 -0.851207
203.676318 100.190621 194.552367 21.173068 2.099973 0.777940 -3.603820 1.785693 0.761625 -1.640332 -5.038521 0.353654 -1.634164 0.779537 0.187144 -1.211292 6.420822 0.143222 -2.562373 10.496063 1.126254 -5.463730 -16.432067 3.335067 -5.002079 1.571826 3.377290 -5.717719 -29.274239 26.500743 -3.770428 -12.509746 -5.330076 13.939671 27.839099 14.154507 -5.151013 4.179558 -2.613306 -72.788063 -23.164686 -12.049727 -2.910637 -19.618694 -10.646488 3.581338 -0.395073 0.211990 -9.830684 -6.568812 -10.889113 -3.811839 12.149990 -0.425525 7.127854 13.020346 15.624418 -0.000000 0.000000 0.000000 26.189725 -4.167266 6.299217 3.175833 11.649758 0.113435 4.007601 18.742522 -9.148526 -0.000000 -0.000000 -0.000000
